<mxfile host="app.diagrams.net" modified="2023-09-14T18:59:30.911Z" agent="Mozilla/5.0 (Windows NT 10.0; Win64; x64) AppleWebKit/537.36 (KHTML, like Gecko) Chrome/116.0.0.0 Safari/537.36" etag="7IEMJm_gp4yEOpdU1zro" version="21.7.5" type="github">
  <diagram name="Page-1" id="D7rZoa8G5b8SfMbHeLon">
    <mxGraphModel dx="1434" dy="750" grid="1" gridSize="10" guides="1" tooltips="1" connect="1" arrows="1" fold="1" page="1" pageScale="1" pageWidth="850" pageHeight="1100" math="0" shadow="0">
      <root>
        <mxCell id="0" />
        <mxCell id="1" parent="0" />
        <mxCell id="8HYqhDQ4ljt2ki2TENmW-5" style="edgeStyle=orthogonalEdgeStyle;rounded=0;orthogonalLoop=1;jettySize=auto;html=1;entryX=-0.007;entryY=0.132;entryDx=0;entryDy=0;exitX=0.988;exitY=0.167;exitDx=0;exitDy=0;exitPerimeter=0;startArrow=classic;startFill=1;entryPerimeter=0;" edge="1" parent="1" source="8HYqhDQ4ljt2ki2TENmW-2" target="8HYqhDQ4ljt2ki2TENmW-3">
          <mxGeometry relative="1" as="geometry">
            <mxPoint x="170" y="100" as="sourcePoint" />
          </mxGeometry>
        </mxCell>
        <mxCell id="8HYqhDQ4ljt2ki2TENmW-8" value="BGP Interconnect" style="edgeLabel;html=1;align=center;verticalAlign=middle;resizable=0;points=[];" vertex="1" connectable="0" parent="8HYqhDQ4ljt2ki2TENmW-5">
          <mxGeometry x="-0.1928" y="-1" relative="1" as="geometry">
            <mxPoint x="16" y="-1" as="offset" />
          </mxGeometry>
        </mxCell>
        <mxCell id="8HYqhDQ4ljt2ki2TENmW-7" style="edgeStyle=orthogonalEdgeStyle;rounded=0;orthogonalLoop=1;jettySize=auto;html=1;exitX=1;exitY=0.75;exitDx=0;exitDy=0;entryX=0.005;entryY=0.266;entryDx=0;entryDy=0;startArrow=classic;startFill=1;entryPerimeter=0;" edge="1" parent="1" target="8HYqhDQ4ljt2ki2TENmW-3">
          <mxGeometry relative="1" as="geometry">
            <mxPoint x="160.8" y="163.08" as="sourcePoint" />
            <mxPoint x="320.00000000000006" y="156.37999999999997" as="targetPoint" />
          </mxGeometry>
        </mxCell>
        <mxCell id="8HYqhDQ4ljt2ki2TENmW-9" value="BGP Interconnect" style="edgeLabel;html=1;align=center;verticalAlign=middle;resizable=0;points=[];" vertex="1" connectable="0" parent="8HYqhDQ4ljt2ki2TENmW-7">
          <mxGeometry x="-0.1945" y="2" relative="1" as="geometry">
            <mxPoint x="16" as="offset" />
          </mxGeometry>
        </mxCell>
        <mxCell id="8HYqhDQ4ljt2ki2TENmW-28" style="edgeStyle=orthogonalEdgeStyle;rounded=0;orthogonalLoop=1;jettySize=auto;html=1;exitX=0.5;exitY=1;exitDx=0;exitDy=0;entryX=0.5;entryY=0;entryDx=0;entryDy=0;startArrow=block;startFill=1;" edge="1" parent="1" source="8HYqhDQ4ljt2ki2TENmW-2" target="8HYqhDQ4ljt2ki2TENmW-22">
          <mxGeometry relative="1" as="geometry" />
        </mxCell>
        <mxCell id="8HYqhDQ4ljt2ki2TENmW-29" value="Non-Prod to Prod traffic" style="edgeLabel;html=1;align=center;verticalAlign=middle;resizable=0;points=[];" vertex="1" connectable="0" parent="8HYqhDQ4ljt2ki2TENmW-28">
          <mxGeometry y="-2" relative="1" as="geometry">
            <mxPoint as="offset" />
          </mxGeometry>
        </mxCell>
        <mxCell id="8HYqhDQ4ljt2ki2TENmW-2" value="Colo &amp;amp; Partner Infra" style="rounded=0;whiteSpace=wrap;html=1;dashed=1;dashPattern=12 12;fillColor=#fad7ac;strokeColor=#b46504;" vertex="1" parent="1">
          <mxGeometry x="80" y="80" width="80" height="120" as="geometry" />
        </mxCell>
        <mxCell id="8HYqhDQ4ljt2ki2TENmW-3" value="&amp;nbsp;Host Project: ulta-network-nonprod" style="rounded=0;whiteSpace=wrap;html=1;verticalAlign=top;align=left;dashed=1;dashPattern=12 12;fillColor=#dae8fc;strokeColor=#6c8ebf;" vertex="1" parent="1">
          <mxGeometry x="320" y="40" width="440" height="470" as="geometry" />
        </mxCell>
        <mxCell id="8HYqhDQ4ljt2ki2TENmW-36" style="edgeStyle=orthogonalEdgeStyle;rounded=0;orthogonalLoop=1;jettySize=auto;html=1;exitX=1;exitY=0.5;exitDx=0;exitDy=0;entryX=1;entryY=0.556;entryDx=0;entryDy=0;entryPerimeter=0;startArrow=classic;startFill=1;" edge="1" parent="1" source="8HYqhDQ4ljt2ki2TENmW-4" target="8HYqhDQ4ljt2ki2TENmW-23">
          <mxGeometry relative="1" as="geometry">
            <Array as="points">
              <mxPoint x="730" y="160" />
              <mxPoint x="730" y="400" />
            </Array>
          </mxGeometry>
        </mxCell>
        <mxCell id="8HYqhDQ4ljt2ki2TENmW-37" value="Peered" style="edgeLabel;html=1;align=center;verticalAlign=middle;resizable=0;points=[];" vertex="1" connectable="0" parent="8HYqhDQ4ljt2ki2TENmW-36">
          <mxGeometry x="0.0126" y="-2" relative="1" as="geometry">
            <mxPoint as="offset" />
          </mxGeometry>
        </mxCell>
        <mxCell id="8HYqhDQ4ljt2ki2TENmW-4" value="&amp;nbsp;Shared VPC: ulta-network-nonprod" style="rounded=0;whiteSpace=wrap;html=1;verticalAlign=top;align=left;fillColor=#F4F7FC;strokeColor=#6c8ebf;" vertex="1" parent="1">
          <mxGeometry x="345" y="70" width="350" height="180" as="geometry" />
        </mxCell>
        <mxCell id="8HYqhDQ4ljt2ki2TENmW-10" value="GCP Aggregate: ?&lt;br style=&quot;font-size: 10px;&quot;&gt;Central Aggregate: ?&amp;nbsp;&lt;br style=&quot;font-size: 10px;&quot;&gt;East Aggregate: ?&lt;br&gt;West Aggregate: ?" style="text;html=1;align=left;verticalAlign=middle;resizable=0;points=[];autosize=1;strokeColor=none;fillColor=none;fontSize=10;" vertex="1" parent="1">
          <mxGeometry width="120" height="60" as="geometry" />
        </mxCell>
        <mxCell id="8HYqhDQ4ljt2ki2TENmW-12" value="&lt;font style=&quot;font-size: 11px;&quot;&gt;Subnet: Many&lt;br&gt;us-central1&amp;nbsp;&lt;/font&gt;" style="rounded=0;whiteSpace=wrap;html=1;verticalAlign=top;fillColor=#CDD0D3;strokeColor=#23445d;" vertex="1" parent="1">
          <mxGeometry x="383" y="110" width="107" height="120" as="geometry" />
        </mxCell>
        <mxCell id="8HYqhDQ4ljt2ki2TENmW-13" value="&lt;font style=&quot;font-size: 11px;&quot;&gt;Subnet: Many&lt;br&gt;us-east1&lt;/font&gt;" style="rounded=0;whiteSpace=wrap;html=1;verticalAlign=top;fillColor=#CDD0D3;strokeColor=#23445d;" vertex="1" parent="1">
          <mxGeometry x="540" y="110" width="107" height="120" as="geometry" />
        </mxCell>
        <mxCell id="8HYqhDQ4ljt2ki2TENmW-14" style="edgeStyle=orthogonalEdgeStyle;rounded=0;orthogonalLoop=1;jettySize=auto;html=1;entryX=0;entryY=0.138;entryDx=0;entryDy=0;exitX=1;exitY=0.25;exitDx=0;exitDy=0;startArrow=classic;startFill=1;entryPerimeter=0;" edge="1" parent="1" target="8HYqhDQ4ljt2ki2TENmW-18" source="8HYqhDQ4ljt2ki2TENmW-22">
          <mxGeometry relative="1" as="geometry">
            <mxPoint x="156" y="660" as="sourcePoint" />
          </mxGeometry>
        </mxCell>
        <mxCell id="8HYqhDQ4ljt2ki2TENmW-15" value="BGP Interconnect" style="edgeLabel;html=1;align=center;verticalAlign=middle;resizable=0;points=[];" vertex="1" connectable="0" parent="8HYqhDQ4ljt2ki2TENmW-14">
          <mxGeometry x="-0.1928" y="-1" relative="1" as="geometry">
            <mxPoint x="16" y="-1" as="offset" />
          </mxGeometry>
        </mxCell>
        <mxCell id="8HYqhDQ4ljt2ki2TENmW-16" style="edgeStyle=orthogonalEdgeStyle;rounded=0;orthogonalLoop=1;jettySize=auto;html=1;exitX=1.025;exitY=0.842;exitDx=0;exitDy=0;entryX=0.002;entryY=0.293;entryDx=0;entryDy=0;entryPerimeter=0;startArrow=classic;startFill=1;exitPerimeter=0;" edge="1" parent="1" target="8HYqhDQ4ljt2ki2TENmW-18" source="8HYqhDQ4ljt2ki2TENmW-22">
          <mxGeometry relative="1" as="geometry">
            <mxPoint x="157" y="730" as="sourcePoint" />
          </mxGeometry>
        </mxCell>
        <mxCell id="8HYqhDQ4ljt2ki2TENmW-17" value="BGP Interconnect" style="edgeLabel;html=1;align=center;verticalAlign=middle;resizable=0;points=[];" vertex="1" connectable="0" parent="8HYqhDQ4ljt2ki2TENmW-16">
          <mxGeometry x="-0.1945" y="2" relative="1" as="geometry">
            <mxPoint x="16" y="2" as="offset" />
          </mxGeometry>
        </mxCell>
        <mxCell id="8HYqhDQ4ljt2ki2TENmW-18" value="&amp;nbsp;Host Project: ulta-network-prod" style="rounded=0;whiteSpace=wrap;html=1;verticalAlign=top;align=left;dashed=1;dashPattern=12 12;fillColor=#dae8fc;strokeColor=#6c8ebf;" vertex="1" parent="1">
          <mxGeometry x="317" y="600" width="513" height="450" as="geometry" />
        </mxCell>
        <mxCell id="8HYqhDQ4ljt2ki2TENmW-34" style="edgeStyle=orthogonalEdgeStyle;rounded=0;orthogonalLoop=1;jettySize=auto;html=1;exitX=1;exitY=0.5;exitDx=0;exitDy=0;entryX=0.95;entryY=-0.017;entryDx=0;entryDy=0;entryPerimeter=0;startArrow=block;startFill=1;" edge="1" parent="1" source="8HYqhDQ4ljt2ki2TENmW-19" target="8HYqhDQ4ljt2ki2TENmW-30">
          <mxGeometry relative="1" as="geometry" />
        </mxCell>
        <mxCell id="8HYqhDQ4ljt2ki2TENmW-35" value="Peered" style="edgeLabel;html=1;align=center;verticalAlign=middle;resizable=0;points=[];" vertex="1" connectable="0" parent="8HYqhDQ4ljt2ki2TENmW-34">
          <mxGeometry x="0.246" relative="1" as="geometry">
            <mxPoint as="offset" />
          </mxGeometry>
        </mxCell>
        <mxCell id="8HYqhDQ4ljt2ki2TENmW-19" value="&amp;nbsp;Shared VPC: ulta-network-prod" style="rounded=0;whiteSpace=wrap;html=1;verticalAlign=top;align=left;fillColor=#F4F7FC;strokeColor=#6c8ebf;" vertex="1" parent="1">
          <mxGeometry x="342" y="630" width="350" height="180" as="geometry" />
        </mxCell>
        <mxCell id="8HYqhDQ4ljt2ki2TENmW-20" value="Subnet: Many&lt;br&gt;us-central1&amp;nbsp;" style="rounded=0;whiteSpace=wrap;html=1;verticalAlign=top;fillColor=#CDD0D3;strokeColor=#23445d;" vertex="1" parent="1">
          <mxGeometry x="380" y="670" width="107" height="120" as="geometry" />
        </mxCell>
        <mxCell id="8HYqhDQ4ljt2ki2TENmW-21" value="Subnet: Many&lt;br&gt;us-east1" style="rounded=0;whiteSpace=wrap;html=1;verticalAlign=top;fillColor=#CDD0D3;strokeColor=#23445d;" vertex="1" parent="1">
          <mxGeometry x="537" y="670" width="107" height="120" as="geometry" />
        </mxCell>
        <mxCell id="8HYqhDQ4ljt2ki2TENmW-22" value="Colo &amp;amp; Partner Infra" style="rounded=0;whiteSpace=wrap;html=1;dashed=1;dashPattern=12 12;fillColor=#fad7ac;strokeColor=#b46504;" vertex="1" parent="1">
          <mxGeometry x="80" y="630" width="80" height="120" as="geometry" />
        </mxCell>
        <mxCell id="8HYqhDQ4ljt2ki2TENmW-23" value="&amp;nbsp;Shared VPC: ulta-network-nonprod-mgmt" style="rounded=0;whiteSpace=wrap;html=1;verticalAlign=top;align=left;fillColor=#F4F7FC;strokeColor=#6c8ebf;" vertex="1" parent="1">
          <mxGeometry x="345" y="300" width="355" height="180" as="geometry" />
        </mxCell>
        <mxCell id="8HYqhDQ4ljt2ki2TENmW-24" value="&lt;font style=&quot;font-size: 11px;&quot;&gt;Subnet: 10.23.63.0/24&lt;br&gt;us-central1&amp;nbsp;&lt;/font&gt;" style="rounded=0;whiteSpace=wrap;html=1;verticalAlign=top;fillColor=#CDD0D3;strokeColor=#23445d;" vertex="1" parent="1">
          <mxGeometry x="383" y="340" width="107" height="120" as="geometry" />
        </mxCell>
        <mxCell id="8HYqhDQ4ljt2ki2TENmW-25" value="&lt;font style=&quot;font-size: 11px;&quot;&gt;Subnet: 10.23.191.0/24&lt;br&gt;us-east1&lt;/font&gt;" style="rounded=0;whiteSpace=wrap;html=1;verticalAlign=top;fillColor=#CDD0D3;strokeColor=#23445d;" vertex="1" parent="1">
          <mxGeometry x="540" y="340" width="107" height="120" as="geometry" />
        </mxCell>
        <mxCell id="8HYqhDQ4ljt2ki2TENmW-26" value="Service Project" style="rounded=1;whiteSpace=wrap;html=1;dashed=1;dashPattern=12 12;" vertex="1" parent="1">
          <mxGeometry x="457" y="170" width="120" height="40" as="geometry" />
        </mxCell>
        <mxCell id="8HYqhDQ4ljt2ki2TENmW-27" value="Service Project" style="rounded=1;whiteSpace=wrap;html=1;dashed=1;dashPattern=12 12;" vertex="1" parent="1">
          <mxGeometry x="450" y="400" width="120" height="40" as="geometry" />
        </mxCell>
        <mxCell id="8HYqhDQ4ljt2ki2TENmW-30" value="&amp;nbsp;Shared VPC: ulta-network-prod-mgmt" style="rounded=0;whiteSpace=wrap;html=1;verticalAlign=top;align=left;fillColor=#F4F7FC;strokeColor=#6c8ebf;" vertex="1" parent="1">
          <mxGeometry x="342" y="850" width="458" height="180" as="geometry" />
        </mxCell>
        <mxCell id="8HYqhDQ4ljt2ki2TENmW-31" value="Subnet: 10.23.95.0/24&lt;br&gt;us-central1&amp;nbsp;" style="rounded=0;whiteSpace=wrap;html=1;verticalAlign=top;fillColor=#CDD0D3;strokeColor=#23445d;" vertex="1" parent="1">
          <mxGeometry x="380" y="890" width="107" height="120" as="geometry" />
        </mxCell>
        <mxCell id="8HYqhDQ4ljt2ki2TENmW-32" value="Subnet: 10.23.159.0/24&lt;br&gt;us-east1" style="rounded=0;whiteSpace=wrap;html=1;verticalAlign=top;fillColor=#CDD0D3;strokeColor=#23445d;" vertex="1" parent="1">
          <mxGeometry x="530" y="890" width="107" height="120" as="geometry" />
        </mxCell>
        <mxCell id="8HYqhDQ4ljt2ki2TENmW-33" value="Subnet: 10.23.15.0/24&lt;br&gt;us-west1" style="rounded=0;whiteSpace=wrap;html=1;verticalAlign=top;fillColor=#CDD0D3;strokeColor=#23445d;" vertex="1" parent="1">
          <mxGeometry x="680" y="890" width="107" height="120" as="geometry" />
        </mxCell>
        <mxCell id="8HYqhDQ4ljt2ki2TENmW-38" value="Service Project" style="rounded=1;whiteSpace=wrap;html=1;dashed=1;dashPattern=12 12;" vertex="1" parent="1">
          <mxGeometry x="450" y="730" width="120" height="40" as="geometry" />
        </mxCell>
        <mxCell id="8HYqhDQ4ljt2ki2TENmW-39" value="Service Project" style="rounded=1;whiteSpace=wrap;html=1;dashed=1;dashPattern=12 12;glass=0;" vertex="1" parent="1">
          <mxGeometry x="438.5" y="960" width="290" height="40" as="geometry" />
        </mxCell>
      </root>
    </mxGraphModel>
  </diagram>
</mxfile>
